<svg width="20" height="18" fill="none" xmlns="http://www.w3.org/2000/svg"><path d="M17.698 2.729v1.84A8.898 8.898 0 0012.865.594a8.863 8.863 0 00-2.863-.472 8.855 8.855 0 00-5.534 1.936A8.898 8.898 0 001.37 6.916a1.151 1.151 0 002.238.538 6.607 6.607 0 014.185-4.65 6.56 6.56 0 012.21-.38c1.439 0 2.806.456 3.952 1.32a6.648 6.648 0 011.867 2.194h-1.275a1.151 1.151 0 000 2.302h4.302a1.15 1.15 0 001.15-1.15V2.728a1.151 1.151 0 10-2.301 0zM1.151 16.42a1.15 1.15 0 001.151-1.15v-1.85a8.89 8.89 0 002.799 2.982 8.84 8.84 0 004.894 1.474h.011a8.855 8.855 0 005.526-1.935 8.897 8.897 0 003.098-4.86 1.151 1.151 0 00-2.239-.538 6.607 6.607 0 01-2.295 3.598A6.55 6.55 0 0110 15.575a6.545 6.545 0 01-3.627-1.09 6.588 6.588 0 01-2.192-2.425h1.272a1.151 1.151 0 000-2.302H1.151C.515 9.758 0 10.274 0 10.91v4.36a1.15 1.15 0 001.151 1.152z" fill="#fff"/></svg>